<svg xmlns="http://www.w3.org/2000/svg" width="28" height="31" viewBox="0 0 28 31">
  <g fill="#FFF" fill-rule="evenodd">
    <path fill-opacity=".3" d="M27.4051026,16.7736054 C26.888393,17.075978 24.4315856,18.4707935 21.2435854,20.2752751 C13.8536644,24.4597217 2.58354756,30.8193002 2.58354756,30.8193002 C2.16697118,31.0041143 1.70167941,31.0486123 1.25765145,30.9461016 C0.657392013,30.7644096 0.186269852,30.2967132 0,29.6975954 L0,1.51842019 C0.178305298,0.930732126 0.576440299,0.434569552 1.11141291,0.133358622 C1.67993718,-0.0912587639 2.32162824,-0.02959759 2.83702769,0.299175853 C4.31891157,1.05998432 14.6238541,6.83432552 21.4190716,10.6968916 C24.6460688,12.5306351 27.0833778,13.9254506 27.3953533,14.1595455 C27.7773112,14.485546 27.9981146,14.9620359 27.999988,15.4643365 C28.0018613,15.966637 27.7846182,16.4447622 27.4051026,16.7736054 L27.4051026,16.7736054 Z"/>
    <path fill-opacity=".3" d="M27.3990312,16.5377502 C26.8900399,16.8358883 24.4136013,18.2207883 21.2128289,20 L16.504659,15.3740495 L1,0.130532905 C1.57510598,-0.0918911587 2.22417422,-0.0274012557 2.74231648,0.303645396 C4.22034901,1.04418217 14.576365,6.73765967 21.3988065,10.5461345 C24.6387321,12.3541983 27.0760175,13.7390982 27.3892429,13.9602975 C27.7748523,14.2804855 27.9981042,14.7507548 27.999988,15.2468027 C28.0018718,15.7428506 27.782198,16.2147437 27.3990312,16.5377502 L27.3990312,16.5377502 Z"/>
    <path d="M27.3988133,14.4557709 C26.8896373,14.1573617 24.4123006,12.780829 21.2103674,11 L16.5004901,15.6301554 L1,30.8682762 C1.57098595,31.0901098 2.21555821,31.0292496 2.73315651,30.7046324 C4.2215169,29.9537964 14.5714967,24.2647697 21.3964125,20.4528329 C24.6375131,18.6431256 27.0756824,17.2665929 27.3890214,17.0355665 C27.7747707,16.7150874 27.9981035,16.2443907 27.999988,15.7478919 C28.0018725,15.251393 27.782119,14.779071 27.3988133,14.4557709 L27.3988133,14.4557709 Z"/>
  </g>
</svg>
