<svg xmlns="http://www.w3.org/2000/svg" width="25" height="31" viewBox="0 0 25 31">
  <g fill="#FFF" fill-rule="evenodd">
    <path d="M20.8807282,16.1909043 C20.8457987,12.1949686 24.0593125,10.2509329 24.2062573,10.1604262 C22.38631,7.42910554 19.5654519,7.05592011 18.5741768,7.02616446 C16.2049933,6.76952199 13.9068732,8.48543108 12.6999989,8.48543108 C11.4690352,8.48543108 9.610545,7.05096084 7.60751896,7.09311467 C5.0299629,7.13402869 2.61862308,8.67016407 1.29612002,11.0555753 C-1.43319868,15.919384 0.602347925,23.0669389 3.21724241,26.998404 C4.52529188,28.9250823 6.05375853,31.0736881 8.05437564,30.9980591 C10.011632,30.9162311 10.7427425,29.713607 13.1046993,29.713607 C15.4449756,29.713607 16.1315209,30.9980591 18.1718854,30.9484664 C20.2724731,30.9162311 21.5949762,29.015589 22.857256,27.0715533 C24.3688601,24.8671556 24.9759107,22.6912738 25,22.5796901 C24.9518214,22.5635725 20.92168,20.980324 20.8807282,16.1909043"/>
    <path d="M17.4477603,4.85860213 C18.4649647,3.55988554 19.1609467,1.79301311 18.9677477,0 C17.4954781,0.0665399166 15.6542683,1.0396862 14.5940015,2.30988568 C13.6559388,3.42918213 12.8179672,5.26378269 13.0344432,6.98906767 C14.6882733,7.11501823 16.3863296,6.1371191 17.4477603,4.85860213"/>
  </g>
</svg>
