<svg xmlns="http://www.w3.org/2000/svg" width="116" height="72" viewBox="0 0 116 72">
  <g fill="none" fill-rule="evenodd">
    <path fill="#8B5DF2" d="M64,0 C68.418278,-8.11624501e-16 72,3.581722 72,8 L72,64 C72,68.418278 68.418278,72 64,72 L8,72 C3.581722,72 5.41083001e-16,68.418278 0,64 L0,8 C-5.41083001e-16,3.581722 3.581722,8.11624501e-16 8,0 L64,0 Z M7.5,5 C6.11928813,5 5,6.11928813 5,7.5 C5,8.88071187 6.11928813,10 7.5,10 C8.88071187,10 10,8.88071187 10,7.5 C10,6.11928813 8.88071187,5 7.5,5 Z M14.5,5 C13.1192881,5 12,6.11928813 12,7.5 C12,8.88071187 13.1192881,10 14.5,10 C15.8807119,10 17,8.88071187 17,7.5 C17,6.11928813 15.8807119,5 14.5,5 Z M21.5,5 C20.1192881,5 19,6.11928813 19,7.5 C19,8.88071187 20.1192881,10 21.5,10 C22.8807119,10 24,8.88071187 24,7.5 C24,6.11928813 22.8807119,5 21.5,5 Z"/>
    <g transform="translate(76 16)">
      <path fill="#FDB44D" fill-opacity=".3" stroke="#FDB44D" stroke-width="3" d="M32,1.5 L8,1.5 C6.20507456,1.5 4.58007456,2.22753728 3.40380592,3.40380592 C2.22753728,4.58007456 1.5,6.20507456 1.5,8 L1.5,48 C1.5,49.7949254 2.22753728,51.4199254 3.40380592,52.5961941 C4.58007456,53.7724627 6.20507456,54.5 8,54.5 L32,54.5 C33.7949254,54.5 35.4199254,53.7724627 36.5961941,52.5961941 C37.7724627,51.4199254 38.5,49.7949254 38.5,48 L38.5,8 C38.5,6.20507456 37.7724627,4.58007456 36.5961941,3.40380592 C35.4199254,2.22753728 33.7949254,1.5 32,1.5 Z"/>
      <rect width="16" height="2" x="12" y="48" fill="#FFF" rx="1"/>
    </g>
  </g>
</svg>
