<svg xmlns="http://www.w3.org/2000/svg" width="88" height="72" viewBox="0 0 88 72">
  <g fill="none" fill-rule="evenodd">
    <rect width="49" height="49" x="1.5" y="13.5" fill="#FDB44D" fill-opacity=".3" stroke="#FDB44D" stroke-width="3" rx="14"/>
    <rect width="72" height="72" x="16" fill="#8B5DF2" rx="20"/>
    <path fill="#FFF" d="M59.999726,20 C60.3957242,20 60.7703892,20.176 61.0237213,20.48 L61.0237213,20.48 L67.6903575,28.48 C68.0836891,28.9506667 68.103689,29.6266667 67.7423573,30.1213333 L67.7423573,30.1213333 L53.0757577,51.4546667 C52.8237588,51.7973333 52.4237607,52 51.9997626,52 C51.5757645,52 51.1757664,51.7973333 50.9237675,51.4546667 L50.9237675,51.4546667 L36.2571679,30.1213333 C35.8958362,29.628 35.9171695,28.9506667 36.3091677,28.48 L36.3091677,28.48 L42.9758039,20.48 C43.229136,20.176 43.603801,20 43.9997992,20 L43.9997992,20 Z M61.3330533,28 L42.6664719,28 L42.6664719,30.6666667 L61.3330533,30.6666667 L61.3330533,28 Z"/>
  </g>
</svg>
